<svg xmlns="http://www.w3.org/2000/svg" xmlns:xlink="http://www.w3.org/1999/xlink" width="500" zoomAndPan="magnify" viewBox="0 0 375 374.999991" height="500" preserveAspectRatio="xMidYMid meet" version="1.0"><defs><clipPath id="296f775eab"><path d="M 37.5 192.421875 L 150 192.421875 L 150 304.921875 L 37.5 304.921875 Z M 37.5 192.421875 " clip-rule="nonzero"/></clipPath><clipPath id="c4ca5b2c63"><path d="M 93.75 192.421875 C 62.683594 192.421875 37.5 217.605469 37.5 248.671875 C 37.5 279.738281 62.683594 304.921875 93.75 304.921875 C 124.816406 304.921875 150 279.738281 150 248.671875 C 150 217.605469 124.816406 192.421875 93.75 192.421875 Z M 93.75 192.421875 " clip-rule="nonzero"/></clipPath><clipPath id="190b649129"><path d="M 225 192.421875 L 337.5 192.421875 L 337.5 304.921875 L 225 304.921875 Z M 225 192.421875 " clip-rule="nonzero"/></clipPath><clipPath id="cea8385872"><path d="M 281.25 192.421875 C 250.183594 192.421875 225 217.605469 225 248.671875 C 225 279.738281 250.183594 304.921875 281.25 304.921875 C 312.316406 304.921875 337.5 279.738281 337.5 248.671875 C 337.5 217.605469 312.316406 192.421875 281.25 192.421875 Z M 281.25 192.421875 " clip-rule="nonzero"/></clipPath><clipPath id="047fe0b671"><path d="M 131.25 37.5 L 243.75 37.5 L 243.75 150 L 131.25 150 Z M 131.25 37.5 " clip-rule="nonzero"/></clipPath><clipPath id="c95cb1e710"><path d="M 187.5 37.5 C 156.433594 37.5 131.25 62.683594 131.25 93.75 C 131.25 124.816406 156.433594 150 187.5 150 C 218.566406 150 243.75 124.816406 243.75 93.75 C 243.75 62.683594 218.566406 37.5 187.5 37.5 Z M 187.5 37.5 " clip-rule="nonzero"/></clipPath></defs><g clip-path="url(#296f775eab)"><g clip-path="url(#c4ca5b2c63)"><path fill="#ffffff" d="M 37.5 192.421875 L 150 192.421875 L 150 304.921875 L 37.5 304.921875 Z M 37.5 192.421875 " fill-opacity="1" fill-rule="nonzero"/></g></g><g clip-path="url(#190b649129)"><g clip-path="url(#cea8385872)"><path fill="#ffffff" d="M 225 192.421875 L 337.5 192.421875 L 337.5 304.921875 L 225 304.921875 Z M 225 192.421875 " fill-opacity="1" fill-rule="nonzero"/></g></g><g clip-path="url(#047fe0b671)"><g clip-path="url(#c95cb1e710)"><path fill="#ffffff" d="M 131.25 37.5 L 243.75 37.5 L 243.75 150 L 131.25 150 Z M 131.25 37.5 " fill-opacity="1" fill-rule="nonzero"/></g></g></svg>