<svg xmlns="http://www.w3.org/2000/svg" xmlns:xlink="http://www.w3.org/1999/xlink" width="500" zoomAndPan="magnify" viewBox="0 0 375 374.999991" height="500" preserveAspectRatio="xMidYMid meet" version="1.0"><defs><clipPath id="a38d703379"><path d="M 37.5 131.25 L 150 131.25 L 150 243.75 L 37.5 243.75 Z M 37.5 131.25 " clip-rule="nonzero"/></clipPath><clipPath id="3295859520"><path d="M 93.75 131.25 C 62.683594 131.25 37.5 156.433594 37.5 187.5 C 37.5 218.566406 62.683594 243.75 93.75 243.75 C 124.816406 243.75 150 218.566406 150 187.5 C 150 156.433594 124.816406 131.25 93.75 131.25 Z M 93.75 131.25 " clip-rule="nonzero"/></clipPath><clipPath id="1d8c26136a"><path d="M 225 131.25 L 337.5 131.25 L 337.5 243.75 L 225 243.75 Z M 225 131.25 " clip-rule="nonzero"/></clipPath><clipPath id="bd885f3bf3"><path d="M 281.25 131.25 C 250.183594 131.25 225 156.433594 225 187.5 C 225 218.566406 250.183594 243.75 281.25 243.75 C 312.316406 243.75 337.5 218.566406 337.5 187.5 C 337.5 156.433594 312.316406 131.25 281.25 131.25 Z M 281.25 131.25 " clip-rule="nonzero"/></clipPath></defs><g clip-path="url(#a38d703379)"><g clip-path="url(#3295859520)"><path fill="#ffffff" d="M 37.5 131.25 L 150 131.25 L 150 243.75 L 37.5 243.75 Z M 37.5 131.25 " fill-opacity="1" fill-rule="nonzero"/></g></g><g clip-path="url(#1d8c26136a)"><g clip-path="url(#bd885f3bf3)"><path fill="#ffffff" d="M 225 131.25 L 337.5 131.25 L 337.5 243.75 L 225 243.75 Z M 225 131.25 " fill-opacity="1" fill-rule="nonzero"/></g></g></svg>